Coordinates
version=1
nRows=21
nColumns=22
inDegrees=yes

Units are S.I. units (second, meters, Newtons, ...)
If the header above contains a line with 'inDegrees', this indicates whether rotational values are in degrees (yes) or radians (no).

endheader
time	pelvis_tilt	pelvis_list	pelvis_rotation	pelvis_tx	pelvis_ty	pelvis_tz	hip_flexion_r	hip_adduction_r	hip_rotation_r	knee_angle_r	ankle_angle_r	subtalar_angle_r	hip_flexion_l	hip_adduction_l	hip_rotation_l	knee_angle_l	ankle_angle_l	subtalar_angle_l	lumbar_extension	lumbar_bending	lumbar_rotation
      0.01000000	      1.45877591	     -3.75995164	     -6.50284914	      0.10481543	      1.02228239	      0.81204018	      0.22169942	      6.17505404	     -0.59770431	    -11.42876407	      9.84427845	     -2.06151070	      0.52232169	     -2.12667530	     -6.20011511	    -12.01664069	     11.93176510	     -2.70237503	    -10.88561280	      2.98955680	      1.86036410
      0.02000000	      1.44717414	     -3.81485091	     -6.48408369	      0.10486033	      1.02226718	      0.81197736	      0.24550451	      6.22604292	     -0.62530714	    -11.48168953	      9.87180440	     -1.98335083	      0.44971289	     -2.14433324	     -5.84204754	    -11.91483833	     11.29934942	     -4.02267322	    -10.88525742	      3.07139772	      1.86152686
      0.03000000	      1.44348261	     -3.81198501	     -6.47535250	      0.10490884	      1.02226145	      0.81198730	      0.24573944	      6.22436140	     -0.62115060	    -11.48031481	      9.87109560	     -1.98301839	      0.45048843	     -2.14335043	     -5.84333251	    -11.91203039	     11.29973857	     -4.02293204	    -10.88685624	      3.07384233	      1.86520261
      0.04000000	      1.43812238	     -3.80846378	     -6.46687132	      0.10496055	      1.02225254	      0.81198903	      0.24619254	      6.22127780	     -0.61581364	    -11.47697974	      9.87139723	     -1.98262947	      0.45163876	     -2.14124473	     -5.84374138	    -11.90649009	     11.30020599	     -4.02305651	    -10.88806064	      3.07679315	      1.86954313
      0.05000000	      1.42011252	     -3.79751526	     -6.46700124	      0.10505129	      1.02222896	      0.81201027	      0.24524977	      6.21253074	     -0.58914719	    -11.44909976	      9.87540917	     -1.98100688	      0.45183206	     -2.13078983	     -5.83206041	    -11.87912956	     11.29955457	     -4.02304229	    -10.86548314	      3.06946832	      1.88242454
      0.06000000	      1.41311690	     -3.79422074	     -6.46177415	      0.10508843	      1.02221563	      0.81200518	      0.24785216	      6.20887439	     -0.58546986	    -11.44586493	      9.87536861	     -1.98122674	      0.45437971	     -2.12851148	     -5.83333982	    -11.87264465	     11.29912773	     -4.02306849	    -10.87106058	      3.07294774	      1.88482554
      0.07000000	      1.39217077	     -3.78275561	     -6.46177772	      0.10518359	      1.02218557	      0.81200776	      0.24814650	      6.19794730	     -0.56617410	    -11.41519749	      9.87440820	     -1.98435429	      0.45605807	     -2.11704143	     -5.83042748	    -11.84140565	     11.29427515	     -4.02264637	    -10.84580507	      3.06729548	      1.89359643
      0.08000000	      1.37259131	     -3.77310034	     -6.46255906	      0.10524994	      1.02215757	      0.81199952	      0.25245847	      6.18836118	     -0.54729338	    -11.39195542	      9.87167960	     -1.99022410	      0.46175505	     -2.10708030	     -5.82716668	    -11.81809588	     11.28620572	     -4.02222607	    -10.83084740	      3.06413200	      1.90051897
      0.09000000	      1.35323852	     -3.76607394	     -6.46437505	      0.10531696	      1.02212813	      0.81199590	      0.25551270	      6.18119001	     -0.53669906	    -11.36699124	      9.87198993	     -1.99697750	      0.46801808	     -2.10097513	     -5.82657612	    -11.79761979	     11.28068065	     -4.02203214	    -10.81783787	      3.06101777	      1.90452502
      0.10000000	      1.33569223	     -3.75974075	     -6.46128466	      0.10539804	      1.02209817	      0.81196190	      0.25493450	      6.17300999	     -0.53094220	    -11.34115046	      9.87508963	     -2.00159637	      0.47329080	     -2.09355879	     -5.82736343	    -11.77907764	     11.27840028	     -4.02193199	    -10.80600969	      3.06366466	      1.90790372
      0.11000000	      1.31659733	     -3.75340330	     -6.45990558	      0.10547928	      1.02206809	      0.81193054	      0.25435336	      6.16482912	     -0.52687521	    -11.31110886	      9.88032971	     -2.00540680	      0.47953579	     -2.08647052	     -5.82655502	    -11.75976331	     11.27618602	     -4.02198436	    -10.79450548	      3.06443313	      1.90934834
      0.12000000	      1.29786014	     -3.74726381	     -6.45876460	      0.10555935	      1.02203546	      0.81189000	      0.25434613	      6.15647451	     -0.52581772	    -11.28259465	      9.88681776	     -2.00789800	      0.48674114	     -2.07879293	     -5.82533261	    -11.74340513	     11.27412383	     -4.02238971	    -10.78586044	      3.06575550	      1.91058048
      0.13000000	      1.27793898	     -3.74091572	     -6.45836603	      0.10563694	      1.02200276	      0.81184576	      0.25522483	      6.14749129	     -0.52837808	    -11.25333795	      9.89483167	     -2.00922263	      0.49674236	     -2.07109408	     -5.82386125	    -11.72883724	     11.27209740	     -4.02332652	    -10.77888326	      3.06591326	      1.91203153
      0.14000000	      1.25783023	     -3.73477541	     -6.45827524	      0.10570886	      1.02197001	      0.81179553	      0.25844891	      6.13872829	     -0.53419060	    -11.22655045	      9.90315906	     -2.00914276	      0.50964085	     -2.06306199	     -5.82240409	    -11.71863805	     11.27029389	     -4.02485248	    -10.77539819	      3.06592005	      1.91439720
      0.15000000	      1.24508401	     -3.73338430	     -6.46121151	      0.10575302	      1.02194910	      0.81174061	      0.26319319	      6.13425722	     -0.53701230	    -11.21580696	      9.90526967	     -2.00897681	      0.51760716	     -2.05883290	     -5.82316125	    -11.71269954	     11.27070135	     -4.02509390	    -10.79073277	      3.07082723	      1.91535672
      0.16000000	      1.22293517	     -3.72701870	     -6.46149434	      0.10583247	      1.02191509	      0.81166887	      0.26466222	      6.12348225	     -0.55047837	    -11.18082142	      9.91528560	     -2.00623386	      0.53709885	     -2.04950656	     -5.82388167	    -11.71130778	     11.27030513	     -4.02717198	    -10.78914919	      3.07246583	      1.92796190
      0.17000000	      1.20896242	     -3.72629643	     -6.46643651	      0.10587423	      1.02189673	      0.81160541	      0.27097933	      6.11960701	     -0.55353539	    -11.17007397	      9.91704623	     -2.00571404	      0.54730925	     -2.04513585	     -5.82453923	    -11.70574710	     11.27090633	     -4.02742920	    -10.80932674	      3.07754237	      1.92894412
      0.18000000	      1.18550429	     -3.72217963	     -6.46986168	      0.10592737	      1.02186399	      0.81152265	      0.27991529	      6.11117963	     -0.56614265	    -11.14233271	      9.92377189	     -1.99879848	      0.57749142	     -2.03793252	     -5.82538140	    -11.72074735	     11.27074833	     -4.03081353	    -10.81770625	      3.08094029	      1.94977893
      0.19000000	      1.17018428	     -3.72234613	     -6.47812057	      0.10597132	      1.02184733	      0.81144411	      0.28869142	      6.10697022	     -0.56895489	    -11.13170862	      9.92496586	     -1.99789564	      0.58879084	     -2.03334481	     -5.82641579	    -11.71563894	     11.27167439	     -4.03119400	    -10.84180192	      3.08794810	      1.94984274
      0.20000000	      1.14219748	     -3.72395368	     -6.48907792	      0.10599835	      1.02180988	      0.81135434	      0.31143108	      6.10456827	     -0.57298665	    -11.11852744	      9.92351605	     -1.98336918	      0.63411561	     -2.03336092	     -5.83754461	    -11.75107313	     11.27414024	     -4.03901208	    -10.85595446	      3.09695843	      1.97565147
      0.21000000	      1.12513858	     -3.72500703	     -6.50116537	      0.10605646	      1.02179408	      0.81125961	      0.32120501	      6.10013809	     -0.57521840	    -11.10776289	      9.92428213	     -1.98236946	      0.64545971	     -2.02807663	     -5.83933549	    -11.74476068	     11.27569397	     -4.03955887	    -10.88169268	      3.10583083	      1.97323598
